<svg width="406" height="168" viewBox="0 0 406 168" fill="none" xmlns="http://www.w3.org/2000/svg">
<g filter="url(#filter0_d_1302_4248)">
<path d="M356.111 42C361.02 42.0001 365 45.9796 365 50.8887V83.0566C364.65 83.033 364.297 83.0205 363.942 83.0205C354.615 83.0207 347.054 91.2856 347.054 101.481C347.054 111.677 354.615 119.943 363.942 119.943C364.298 119.943 364.65 119.929 365 119.905V153.111C365 158.02 361.02 162 356.111 162H12.8887C7.97965 162 4.00012 158.02 4 153.111V119.943C13.3275 119.943 20.8896 111.677 20.8896 101.481C20.8896 91.4449 13.5624 83.2792 4.43652 83.0264L4 83.0205V50.8887C4.00011 45.9796 7.97964 42.0001 12.8887 42H356.111Z" fill="url(#paint0_linear_1302_4248)"/>
</g>
<path d="M145 55V149.444" stroke="#BDC8CF" stroke-width="2.22222" stroke-linejoin="round" stroke-dasharray="7.78 7.78"/>
<path d="M56.58 107.14C55.6467 107.14 54.8067 106.98 54.06 106.66C53.3133 106.327 52.7267 105.86 52.3 105.26C51.8733 104.66 51.66 103.96 51.66 103.16H54.1C54.1533 103.76 54.3867 104.253 54.8 104.64C55.2267 105.027 55.82 105.22 56.58 105.22C57.3667 105.22 57.98 105.033 58.42 104.66C58.86 104.273 59.08 103.78 59.08 103.18C59.08 102.713 58.94 102.333 58.66 102.04C58.3933 101.747 58.0533 101.52 57.64 101.36C57.24 101.2 56.68 101.027 55.96 100.84C55.0533 100.6 54.3133 100.36 53.74 100.12C53.18 99.8667 52.7 99.48 52.3 98.96C51.9 98.44 51.7 97.7467 51.7 96.88C51.7 96.08 51.9 95.38 52.3 94.78C52.7 94.18 53.26 93.72 53.98 93.4C54.7 93.08 55.5333 92.92 56.48 92.92C57.8267 92.92 58.9267 93.26 59.78 93.94C60.6467 94.6067 61.1267 95.5267 61.22 96.7H58.7C58.66 96.1933 58.42 95.76 57.98 95.4C57.54 95.04 56.96 94.86 56.24 94.86C55.5867 94.86 55.0533 95.0267 54.64 95.36C54.2267 95.6933 54.02 96.1733 54.02 96.8C54.02 97.2267 54.1467 97.58 54.4 97.86C54.6667 98.1267 55 98.34 55.4 98.5C55.8 98.66 56.3467 98.8333 57.04 99.02C57.96 99.2733 58.7067 99.5267 59.28 99.78C59.8667 100.033 60.36 100.427 60.76 100.96C61.1733 101.48 61.38 102.18 61.38 103.06C61.38 103.767 61.1867 104.433 60.8 105.06C60.4267 105.687 59.8733 106.193 59.14 106.58C58.42 106.953 57.5667 107.14 56.58 107.14ZM74.3303 97.1C73.9703 96.4067 73.4703 95.8867 72.8303 95.54C72.1903 95.18 71.4503 95 70.6103 95C69.6903 95 68.8703 95.2067 68.1503 95.62C67.4303 96.0333 66.8636 96.62 66.4503 97.38C66.0503 98.14 65.8503 99.02 65.8503 100.02C65.8503 101.02 66.0503 101.907 66.4503 102.68C66.8636 103.44 67.4303 104.027 68.1503 104.44C68.8703 104.853 69.6903 105.06 70.6103 105.06C71.8503 105.06 72.857 104.713 73.6303 104.02C74.4036 103.327 74.877 102.387 75.0503 101.2H69.8303V99.38H77.4903V101.16C77.3436 102.24 76.957 103.233 76.3303 104.14C75.717 105.047 74.9103 105.773 73.9103 106.32C72.9236 106.853 71.8236 107.12 70.6103 107.12C69.3036 107.12 68.1103 106.82 67.0303 106.22C65.9503 105.607 65.0903 104.76 64.4503 103.68C63.8236 102.6 63.5103 101.38 63.5103 100.02C63.5103 98.66 63.8236 97.44 64.4503 96.36C65.0903 95.28 65.9503 94.44 67.0303 93.84C68.1236 93.2267 69.317 92.92 70.6103 92.92C72.0903 92.92 73.4036 93.2867 74.5503 94.02C75.7103 94.74 76.5503 95.7667 77.0703 97.1H74.3303ZM84.4791 93.1C85.9591 93.1 87.2524 93.3867 88.3591 93.96C89.4791 94.52 90.3391 95.3333 90.9391 96.4C91.5524 97.4533 91.8591 98.6867 91.8591 100.1C91.8591 101.513 91.5524 102.74 90.9391 103.78C90.3391 104.82 89.4791 105.62 88.3591 106.18C87.2524 106.727 85.9591 107 84.4791 107H79.9391V93.1H84.4791ZM84.4791 105.14C86.1057 105.14 87.3524 104.7 88.2191 103.82C89.0857 102.94 89.5191 101.7 89.5191 100.1C89.5191 98.4867 89.0857 97.2267 88.2191 96.32C87.3524 95.4133 86.1057 94.96 84.4791 94.96H82.2191V105.14H84.4791ZM100.674 103.9C101.954 102.793 102.961 101.887 103.694 101.18C104.441 100.46 105.061 99.7133 105.554 98.94C106.047 98.1667 106.294 97.3933 106.294 96.62C106.294 95.82 106.101 95.1933 105.714 94.74C105.341 94.2867 104.747 94.06 103.934 94.06C103.147 94.06 102.534 94.3133 102.094 94.82C101.667 95.3133 101.441 95.98 101.414 96.82H99.2141C99.2541 95.3 99.7074 94.14 100.574 93.34C101.454 92.5267 102.567 92.12 103.914 92.12C105.367 92.12 106.501 92.52 107.314 93.32C108.141 94.12 108.554 95.1867 108.554 96.52C108.554 97.48 108.307 98.4067 107.814 99.3C107.334 100.18 106.754 100.973 106.074 101.68C105.407 102.373 104.554 103.18 103.514 104.1L102.614 104.9H108.954V106.8H99.2341V105.14L100.674 103.9ZM111.157 99.52C111.157 97.2133 111.544 95.4133 112.317 94.12C113.104 92.8133 114.45 92.16 116.357 92.16C118.264 92.16 119.604 92.8133 120.377 94.12C121.164 95.4133 121.557 97.2133 121.557 99.52C121.557 101.853 121.164 103.68 120.377 105C119.604 106.307 118.264 106.96 116.357 106.96C114.45 106.96 113.104 106.307 112.317 105C111.544 103.68 111.157 101.853 111.157 99.52ZM119.317 99.52C119.317 98.44 119.244 97.5267 119.097 96.78C118.964 96.0333 118.684 95.4267 118.257 94.96C117.83 94.48 117.197 94.24 116.357 94.24C115.517 94.24 114.884 94.48 114.457 94.96C114.03 95.4267 113.744 96.0333 113.597 96.78C113.464 97.5267 113.397 98.44 113.397 99.52C113.397 100.64 113.464 101.58 113.597 102.34C113.73 103.1 114.01 103.713 114.437 104.18C114.877 104.647 115.517 104.88 116.357 104.88C117.197 104.88 117.83 104.647 118.257 104.18C118.697 103.713 118.984 103.1 119.117 102.34C119.25 101.58 119.317 100.64 119.317 99.52Z" fill="white"/>
<path d="M237.32 83.288C236.936 82.584 236.408 82.048 235.736 81.68C235.064 81.312 234.28 81.128 233.384 81.128C232.392 81.128 231.512 81.352 230.744 81.8C229.976 82.248 229.376 82.888 228.944 83.72C228.512 84.552 228.296 85.512 228.296 86.6C228.296 87.72 228.512 88.696 228.944 89.528C229.392 90.36 230.008 91 230.792 91.448C231.576 91.896 232.488 92.12 233.528 92.12C234.808 92.12 235.856 91.784 236.672 91.112C237.488 90.424 238.024 89.472 238.28 88.256H232.52V85.688H241.592V88.616C241.368 89.784 240.888 90.864 240.152 91.856C239.416 92.848 238.464 93.648 237.296 94.256C236.144 94.848 234.848 95.144 233.408 95.144C231.792 95.144 230.328 94.784 229.016 94.064C227.72 93.328 226.696 92.312 225.944 91.016C225.208 89.72 224.84 88.248 224.84 86.6C224.84 84.952 225.208 83.48 225.944 82.184C226.696 80.872 227.72 79.856 229.016 79.136C230.328 78.4 231.784 78.032 233.384 78.032C235.272 78.032 236.912 78.496 238.304 79.424C239.696 80.336 240.656 81.624 241.184 83.288H237.32ZM250.182 95.216C248.902 95.216 247.75 94.936 246.726 94.376C245.702 93.8 244.894 92.992 244.302 91.952C243.726 90.912 243.438 89.712 243.438 88.352C243.438 86.992 243.734 85.792 244.326 84.752C244.934 83.712 245.758 82.912 246.798 82.352C247.838 81.776 248.998 81.488 250.278 81.488C251.558 81.488 252.718 81.776 253.758 82.352C254.798 82.912 255.614 83.712 256.206 84.752C256.814 85.792 257.118 86.992 257.118 88.352C257.118 89.712 256.806 90.912 256.182 91.952C255.574 92.992 254.742 93.8 253.686 94.376C252.646 94.936 251.478 95.216 250.182 95.216ZM250.182 92.288C250.79 92.288 251.358 92.144 251.886 91.856C252.43 91.552 252.862 91.104 253.182 90.512C253.502 89.92 253.662 89.2 253.662 88.352C253.662 87.088 253.326 86.12 252.654 85.448C251.998 84.76 251.19 84.416 250.23 84.416C249.27 84.416 248.462 84.76 247.806 85.448C247.166 86.12 246.846 87.088 246.846 88.352C246.846 89.616 247.158 90.592 247.782 91.28C248.422 91.952 249.222 92.288 250.182 92.288ZM263.143 77.24V95H259.783V77.24H263.143ZM265.798 88.304C265.798 86.96 266.062 85.768 266.59 84.728C267.134 83.688 267.87 82.888 268.798 82.328C269.726 81.768 270.758 81.488 271.894 81.488C272.758 81.488 273.582 81.68 274.366 82.064C275.15 82.432 275.774 82.928 276.238 83.552V77.24H279.646V95H276.238V93.032C275.822 93.688 275.238 94.216 274.486 94.616C273.734 95.016 272.862 95.216 271.87 95.216C270.75 95.216 269.726 94.928 268.798 94.352C267.87 93.776 267.134 92.968 266.59 91.928C266.062 90.872 265.798 89.664 265.798 88.304ZM276.262 88.352C276.262 87.536 276.102 86.84 275.782 86.264C275.462 85.672 275.03 85.224 274.486 84.92C273.942 84.6 273.358 84.44 272.734 84.44C272.11 84.44 271.534 84.592 271.006 84.896C270.478 85.2 270.046 85.648 269.71 86.24C269.39 86.816 269.23 87.504 269.23 88.304C269.23 89.104 269.39 89.808 269.71 90.416C270.046 91.008 270.478 91.464 271.006 91.784C271.55 92.104 272.126 92.264 272.734 92.264C273.358 92.264 273.942 92.112 274.486 91.808C275.03 91.488 275.462 91.04 275.782 90.464C276.102 89.872 276.262 89.168 276.262 88.352Z" fill="white"/>
<path d="M205.714 123.978C206.899 123.026 207.828 122.247 208.5 121.64C209.172 121.024 209.737 120.385 210.194 119.722C210.661 119.05 210.894 118.392 210.894 117.748C210.894 117.141 210.745 116.665 210.446 116.32C210.157 115.965 209.685 115.788 209.032 115.788C208.397 115.788 207.903 115.989 207.548 116.39C207.203 116.782 207.016 117.309 206.988 117.972H205.756C205.793 116.927 206.111 116.119 206.708 115.55C207.305 114.981 208.075 114.696 209.018 114.696C209.979 114.696 210.74 114.962 211.3 115.494C211.869 116.026 212.154 116.759 212.154 117.692C212.154 118.467 211.921 119.223 211.454 119.96C210.997 120.688 210.474 121.332 209.886 121.892C209.298 122.443 208.547 123.087 207.632 123.824H212.448V124.888H205.714V123.978ZM220.575 115.984H215.661V119.176C215.875 118.877 216.193 118.635 216.613 118.448C217.033 118.252 217.485 118.154 217.971 118.154C218.745 118.154 219.375 118.317 219.861 118.644C220.346 118.961 220.691 119.377 220.897 119.89C221.111 120.394 221.219 120.931 221.219 121.5C221.219 122.172 221.093 122.774 220.841 123.306C220.589 123.838 220.201 124.258 219.679 124.566C219.165 124.874 218.526 125.028 217.761 125.028C216.781 125.028 215.987 124.776 215.381 124.272C214.774 123.768 214.405 123.096 214.275 122.256H215.521C215.642 122.788 215.899 123.203 216.291 123.502C216.683 123.801 217.177 123.95 217.775 123.95C218.512 123.95 219.067 123.731 219.441 123.292C219.814 122.844 220.001 122.256 220.001 121.528C220.001 120.8 219.814 120.24 219.441 119.848C219.067 119.447 218.517 119.246 217.789 119.246C217.294 119.246 216.86 119.367 216.487 119.61C216.123 119.843 215.857 120.165 215.689 120.576H214.485V114.864H220.575V115.984ZM233.26 115.242V116.278H230.6V125H229.326V116.278H226.652V115.242H233.26ZM238.374 125.126C237.656 125.126 237.002 124.963 236.414 124.636C235.836 124.309 235.378 123.847 235.042 123.25C234.716 122.643 234.552 121.943 234.552 121.15C234.552 120.366 234.72 119.675 235.056 119.078C235.402 118.471 235.868 118.009 236.456 117.692C237.044 117.365 237.702 117.202 238.43 117.202C239.158 117.202 239.816 117.365 240.404 117.692C240.992 118.009 241.454 118.467 241.79 119.064C242.136 119.661 242.308 120.357 242.308 121.15C242.308 121.943 242.131 122.643 241.776 123.25C241.431 123.847 240.96 124.309 240.362 124.636C239.765 124.963 239.102 125.126 238.374 125.126ZM238.374 124.006C238.832 124.006 239.261 123.899 239.662 123.684C240.064 123.469 240.386 123.147 240.628 122.718C240.88 122.289 241.006 121.766 241.006 121.15C241.006 120.534 240.885 120.011 240.642 119.582C240.4 119.153 240.082 118.835 239.69 118.63C239.298 118.415 238.874 118.308 238.416 118.308C237.95 118.308 237.52 118.415 237.128 118.63C236.746 118.835 236.438 119.153 236.204 119.582C235.971 120.011 235.854 120.534 235.854 121.15C235.854 121.775 235.966 122.303 236.19 122.732C236.424 123.161 236.732 123.483 237.114 123.698C237.497 123.903 237.917 124.006 238.374 124.006ZM248.467 125L245.457 121.612V125H244.183V114.64H245.457V120.73L248.411 117.328H250.189L246.577 121.15L250.203 125H248.467ZM258.589 120.87C258.589 121.113 258.575 121.369 258.547 121.64H252.415C252.461 122.396 252.718 122.989 253.185 123.418C253.661 123.838 254.235 124.048 254.907 124.048C255.457 124.048 255.915 123.922 256.279 123.67C256.652 123.409 256.913 123.063 257.063 122.634H258.435C258.229 123.371 257.819 123.973 257.203 124.44C256.587 124.897 255.821 125.126 254.907 125.126C254.179 125.126 253.525 124.963 252.947 124.636C252.377 124.309 251.929 123.847 251.603 123.25C251.276 122.643 251.113 121.943 251.113 121.15C251.113 120.357 251.271 119.661 251.589 119.064C251.906 118.467 252.349 118.009 252.919 117.692C253.497 117.365 254.16 117.202 254.907 117.202C255.635 117.202 256.279 117.361 256.839 117.678C257.399 117.995 257.828 118.434 258.127 118.994C258.435 119.545 258.589 120.17 258.589 120.87ZM257.273 120.604C257.273 120.119 257.165 119.703 256.951 119.358C256.736 119.003 256.442 118.737 256.069 118.56C255.705 118.373 255.299 118.28 254.851 118.28C254.207 118.28 253.656 118.485 253.199 118.896C252.751 119.307 252.494 119.876 252.429 120.604H257.273ZM264.208 117.188C265.142 117.188 265.898 117.473 266.476 118.042C267.055 118.602 267.344 119.414 267.344 120.478V125H266.084V120.66C266.084 119.895 265.893 119.311 265.51 118.91C265.128 118.499 264.605 118.294 263.942 118.294C263.27 118.294 262.734 118.504 262.332 118.924C261.94 119.344 261.744 119.955 261.744 120.758V125H260.47V117.328H261.744V118.42C261.996 118.028 262.337 117.725 262.766 117.51C263.205 117.295 263.686 117.188 264.208 117.188ZM272.341 125.126C271.753 125.126 271.226 125.028 270.759 124.832C270.293 124.627 269.924 124.347 269.653 123.992C269.383 123.628 269.233 123.213 269.205 122.746H270.521C270.559 123.129 270.736 123.441 271.053 123.684C271.38 123.927 271.805 124.048 272.327 124.048C272.813 124.048 273.195 123.941 273.475 123.726C273.755 123.511 273.895 123.241 273.895 122.914C273.895 122.578 273.746 122.331 273.447 122.172C273.149 122.004 272.687 121.841 272.061 121.682C271.492 121.533 271.025 121.383 270.661 121.234C270.307 121.075 269.999 120.847 269.737 120.548C269.485 120.24 269.359 119.839 269.359 119.344C269.359 118.952 269.476 118.593 269.709 118.266C269.943 117.939 270.274 117.683 270.703 117.496C271.133 117.3 271.623 117.202 272.173 117.202C273.023 117.202 273.709 117.417 274.231 117.846C274.754 118.275 275.034 118.863 275.071 119.61H273.797C273.769 119.209 273.606 118.887 273.307 118.644C273.018 118.401 272.626 118.28 272.131 118.28C271.674 118.28 271.31 118.378 271.039 118.574C270.769 118.77 270.633 119.027 270.633 119.344C270.633 119.596 270.713 119.806 270.871 119.974C271.039 120.133 271.245 120.263 271.487 120.366C271.739 120.459 272.085 120.567 272.523 120.688C273.074 120.837 273.522 120.987 273.867 121.136C274.213 121.276 274.507 121.491 274.749 121.78C275.001 122.069 275.132 122.447 275.141 122.914C275.141 123.334 275.025 123.712 274.791 124.048C274.558 124.384 274.227 124.65 273.797 124.846C273.377 125.033 272.892 125.126 272.341 125.126ZM284.194 118.378H282.584V125H281.31V118.378H280.316V117.328H281.31V116.782C281.31 115.923 281.529 115.298 281.968 114.906C282.416 114.505 283.13 114.304 284.11 114.304V115.368C283.55 115.368 283.153 115.48 282.92 115.704C282.696 115.919 282.584 116.278 282.584 116.782V117.328H284.194V118.378ZM289.226 125.126C288.507 125.126 287.854 124.963 287.266 124.636C286.687 124.309 286.23 123.847 285.894 123.25C285.567 122.643 285.404 121.943 285.404 121.15C285.404 120.366 285.572 119.675 285.908 119.078C286.253 118.471 286.72 118.009 287.308 117.692C287.896 117.365 288.554 117.202 289.282 117.202C290.01 117.202 290.668 117.365 291.256 117.692C291.844 118.009 292.306 118.467 292.642 119.064C292.987 119.661 293.16 120.357 293.16 121.15C293.16 121.943 292.982 122.643 292.628 123.25C292.282 123.847 291.811 124.309 291.214 124.636C290.616 124.963 289.954 125.126 289.226 125.126ZM289.226 124.006C289.683 124.006 290.112 123.899 290.514 123.684C290.915 123.469 291.237 123.147 291.48 122.718C291.732 122.289 291.858 121.766 291.858 121.15C291.858 120.534 291.736 120.011 291.494 119.582C291.251 119.153 290.934 118.835 290.542 118.63C290.15 118.415 289.725 118.308 289.268 118.308C288.801 118.308 288.372 118.415 287.98 118.63C287.597 118.835 287.289 119.153 287.056 119.582C286.822 120.011 286.706 120.534 286.706 121.15C286.706 121.775 286.818 122.303 287.042 122.732C287.275 123.161 287.583 123.483 287.966 123.698C288.348 123.903 288.768 124.006 289.226 124.006ZM296.309 118.574C296.533 118.135 296.85 117.795 297.261 117.552C297.681 117.309 298.189 117.188 298.787 117.188V118.504H298.451C297.023 118.504 296.309 119.279 296.309 120.828V125H295.035V117.328H296.309V118.574Z" fill="white"/>
<path d="M4 50V83C8.5 83 19.5 86 21.5 99C23.1 114.6 10.5 119.5 4 120V154C5.6 159.6 10 161.333 12 161.5H29.5V42H13C6.5 42 4 48.5 4 50Z" fill="#FE5858"/>
<path d="M332.703 41.9998L365 71.9998L365 153.499L252 41.9998L332.703 41.9998Z" fill="#F04848"/>
<path d="M293.206 55.2539L302.931 45.1832L306.326 48.462C306.998 49.1103 307.453 49.819 307.693 50.5881C307.952 51.3568 307.989 52.1246 307.804 52.8916C307.638 53.6583 307.245 54.363 306.624 55.0056C306.022 55.629 305.351 56.0556 304.61 56.2854C303.869 56.5152 303.124 56.5377 302.376 56.3527C301.638 56.177 300.962 55.7928 300.348 55.2L298.089 53.0188L294.616 56.6155L293.206 55.2539ZM299.353 51.7096L301.598 53.8769C302.106 54.3678 302.694 54.5933 303.363 54.5533C304.041 54.5038 304.654 54.196 305.2 53.6302C305.765 53.0451 306.027 52.3899 305.986 51.6645C305.955 50.9484 305.647 50.3079 305.062 49.7429L303.091 47.8395L299.353 51.7096ZM305.828 67.7767C304.85 66.832 304.195 65.7732 303.863 64.6003C303.531 63.4274 303.53 62.2393 303.857 61.036C304.195 59.842 304.855 58.7367 305.836 57.72C306.818 56.7033 307.895 56.0103 309.067 55.641C310.258 55.2713 311.441 55.2271 312.615 55.5083C313.799 55.78 314.88 56.3882 315.858 57.3329C316.836 58.2777 317.482 59.3366 317.795 60.5099C318.117 61.6735 318.109 62.8523 317.771 64.0463C317.443 65.2308 316.788 66.3313 315.806 67.348C314.825 68.3646 313.743 69.0624 312.561 69.4414C311.38 69.8203 310.202 69.8692 309.028 69.5879C307.863 69.3159 306.797 68.7122 305.828 67.7767ZM307.078 66.4819C307.769 67.1488 308.54 67.5691 309.392 67.7428C310.243 67.9166 311.1 67.8544 311.963 67.5565C312.825 67.2586 313.627 66.726 314.368 65.9587C315.099 65.201 315.594 64.3814 315.852 63.4999C316.129 62.6181 316.161 61.7501 315.948 60.8957C315.745 60.0506 315.298 59.2946 314.608 58.6277C313.917 57.9609 313.141 57.5359 312.28 57.3529C311.418 57.17 310.547 57.2276 309.666 57.5259C308.804 57.8238 308.007 58.3516 307.275 59.1093C306.534 59.8766 306.035 60.701 305.776 61.5824C305.518 62.4639 305.496 63.3318 305.709 64.1862C305.931 65.0498 306.388 65.8151 307.078 66.4819ZM312.847 74.2214L322.572 64.1506L325.968 67.4294C326.639 68.0778 327.095 68.7864 327.334 69.5555C327.593 70.3242 327.63 71.0921 327.445 71.8591C327.279 72.6258 326.886 73.3304 326.266 73.973C325.664 74.5964 324.992 75.0231 324.251 75.2529C323.51 75.4827 322.766 75.5051 322.018 75.3201C321.279 75.1444 320.603 74.7602 319.989 74.1674L317.73 71.9862L314.257 75.5829L312.847 74.2214ZM318.995 70.677L321.239 72.8443C321.747 73.3352 322.336 73.5607 323.005 73.5207C323.683 73.4712 324.295 73.1635 324.841 72.5976C325.406 72.0125 325.668 71.3573 325.627 70.632C325.596 69.9159 325.288 69.2753 324.703 68.7103L322.732 66.807L318.995 70.677ZM324.838 86.2177C324.061 85.4675 323.528 84.647 323.239 83.7562C322.969 82.8651 322.949 81.9744 323.178 81.084C323.417 80.184 323.902 79.3552 324.634 78.5975L330.858 72.1522L332.268 73.5137L326.044 79.959C325.562 80.4578 325.242 81.0009 325.082 81.5883C324.932 82.1849 324.943 82.7694 325.113 83.3416C325.293 83.9231 325.632 84.4547 326.131 84.9363C326.63 85.4179 327.173 85.7385 327.76 85.898C328.348 86.0574 328.932 86.0472 329.513 85.8674C330.095 85.6875 330.627 85.3482 331.108 84.8494L337.332 78.4041L338.757 79.7796L332.532 86.2248C331.801 86.9826 330.985 87.4919 330.084 87.7527C329.202 88.0133 328.302 88.0149 327.382 87.7575C326.482 87.4997 325.634 86.9865 324.838 86.2177ZM331.435 92.1712L341.16 82.1005L342.57 83.462L334.095 92.238L338.771 96.7532L337.52 98.0481L331.435 92.1712ZM345.943 106.181L351.683 92.2621L353.121 93.6515L347.453 107.64L345.943 106.181ZM337.828 98.3456L351.611 92.1927L353.049 93.582L339.339 99.8043L337.828 98.3456ZM342.34 97.503L343.563 96.237L349.36 101.836L348.138 103.102L342.34 97.503ZM348.856 108.995L358.581 98.9242L361.977 102.203C362.648 102.851 363.108 103.555 363.357 104.315C363.625 105.074 363.676 105.827 363.51 106.575C363.363 107.323 362.993 108.003 362.4 108.617C361.816 109.221 361.139 109.606 360.369 109.77C359.608 109.944 358.83 109.905 358.033 109.655C357.246 109.395 356.517 108.941 355.845 108.293L353.99 106.501L350.266 110.357L348.856 108.995ZM354.482 114.427L356.067 108.006L357.911 108.342L356.078 115.969L354.482 114.427ZM355.24 105.206L357.355 107.248C357.7 107.582 358.081 107.801 358.498 107.907C358.933 108.013 359.362 108.01 359.785 107.899C360.226 107.788 360.613 107.559 360.947 107.214C361.466 106.677 361.7 106.06 361.65 105.363C361.6 104.666 361.278 104.03 360.683 103.456L358.741 101.581L355.24 105.206Z" fill="black"/>
<defs>
<filter id="filter0_d_1302_4248" x="0.666666" y="40.8889" width="367.667" height="126.667" filterUnits="userSpaceOnUse" color-interpolation-filters="sRGB">
<feFlood flood-opacity="0" result="BackgroundImageFix"/>
<feColorMatrix in="SourceAlpha" type="matrix" values="0 0 0 0 0 0 0 0 0 0 0 0 0 0 0 0 0 0 127 0" result="hardAlpha"/>
<feOffset dy="2.22222"/>
<feGaussianBlur stdDeviation="1.66667"/>
<feComposite in2="hardAlpha" operator="out"/>
<feColorMatrix type="matrix" values="0 0 0 0 0 0 0 0 0 0 0 0 0 0 0 0 0 0 0.25 0"/>
<feBlend mode="normal" in2="BackgroundImageFix" result="effect1_dropShadow_1302_4248"/>
<feBlend mode="normal" in="SourceGraphic" in2="effect1_dropShadow_1302_4248" result="shape"/>
</filter>
<linearGradient id="paint0_linear_1302_4248" x1="4" y1="102" x2="365" y2="102" gradientUnits="userSpaceOnUse">
<stop stop-color="#FFB5AC"/>
<stop offset="1" stop-color="#FF6E6E"/>
</linearGradient>
</defs>
</svg>
