<svg width="369" height="128" viewBox="0 0 369 128" fill="none" xmlns="http://www.w3.org/2000/svg">
<g filter="url(#filter0_d_1128_5606)">
<mask id="path-2-inside-1_1128_5606" fill="white">
<path d="M356.111 2C361.02 2.00012 365 5.97965 365 10.8887V43.0566C364.65 43.033 364.297 43.0205 363.942 43.0205C354.615 43.0207 347.054 51.2857 347.054 61.4814C347.054 71.6773 354.615 79.9431 363.942 79.9434C364.298 79.9434 364.65 79.9289 365 79.9053V113.111C365 118.02 361.02 122 356.111 122H12.8887C7.97965 122 4.00012 118.02 4 113.111V79.9434C13.3275 79.9434 20.8896 71.6775 20.8896 61.4814C20.8895 51.445 13.5623 43.2792 4.43652 43.0264L4 43.0205V10.8887C4.00011 5.97964 7.97964 2.00012 12.8887 2H356.111Z"/>
</mask>
<path d="M356.111 2L356.111 1H356.111V2ZM365 10.8887H366V10.8886L365 10.8887ZM365 43.0566L364.933 44.0544L366 44.1264V43.0566H365ZM363.942 43.0205V42.0205H363.942L363.942 43.0205ZM347.054 61.4814L346.054 61.4814V61.4814H347.054ZM363.942 79.9434L363.942 80.9434H363.942V79.9434ZM365 79.9053H366V78.8355L364.933 78.9075L365 79.9053ZM365 113.111L366 113.111V113.111H365ZM356.111 122V123H356.111L356.111 122ZM12.8887 122L12.8886 123H12.8887V122ZM4 113.111H3V113.111L4 113.111ZM4 79.9434V78.9434H3V79.9434H4ZM20.8896 61.4814H21.8896V61.4814L20.8896 61.4814ZM4.43652 43.0264L4.46422 42.0268L4.45708 42.0266L4.44995 42.0265L4.43652 43.0264ZM4 43.0205H3V44.0072L3.98658 44.0204L4 43.0205ZM4 10.8887L3 10.8886V10.8887H4ZM12.8887 2V1H12.8886L12.8887 2ZM356.111 2L356.111 3C360.468 3.00011 364 6.53194 364 10.8887L365 10.8887L366 10.8886C366 5.42736 361.573 1.00013 356.111 1L356.111 2ZM365 10.8887H364V43.0566H365H366V10.8887H365ZM365 43.0566L365.067 42.0589C364.696 42.0339 364.321 42.0205 363.942 42.0205V43.0205V44.0205C364.274 44.0205 364.604 44.0322 364.933 44.0544L365 43.0566ZM363.942 43.0205L363.942 42.0205C353.981 42.0208 346.054 50.8191 346.054 61.4814L347.054 61.4814L348.054 61.4815C348.054 51.7524 355.249 44.0207 363.942 44.0205L363.942 43.0205ZM347.054 61.4814H346.054C346.054 72.1439 353.981 80.9431 363.942 80.9434L363.942 79.9434L363.942 78.9434C355.249 78.9431 348.054 71.2107 348.054 61.4814H347.054ZM363.942 79.9434V80.9434C364.324 80.9434 364.7 80.9278 365.067 80.903L365 79.9053L364.933 78.9075C364.6 78.93 364.271 78.9434 363.942 78.9434V79.9434ZM365 79.9053H364V113.111H365H366V79.9053H365ZM365 113.111L364 113.111C364 117.468 360.468 121 356.111 121L356.111 122L356.111 123C361.573 123 366 118.573 366 113.111L365 113.111ZM356.111 122V121H12.8887V122V123H356.111V122ZM12.8887 122L12.8887 121C8.53194 121 5.0001 117.468 5 113.111L4 113.111L3 113.111C3.00013 118.573 7.42736 123 12.8886 123L12.8887 122ZM4 113.111H5V79.9434H4H3V113.111H4ZM4 79.9434V80.9434C13.9617 80.9434 21.8896 72.1441 21.8896 61.4814H20.8896H19.8896C19.8896 71.2108 12.6933 78.9434 4 78.9434V79.9434ZM20.8896 61.4814L21.8896 61.4814C21.8895 50.9841 14.2085 42.2967 4.46422 42.0268L4.43652 43.0264L4.40883 44.026C12.9162 44.2617 19.8895 51.9058 19.8896 61.4815L20.8896 61.4814ZM4.43652 43.0264L4.44995 42.0265L4.01342 42.0206L4 43.0205L3.98658 44.0204L4.4231 44.0263L4.43652 43.0264ZM4 43.0205H5V10.8887H4H3V43.0205H4ZM4 10.8887L5 10.8887C5.0001 6.53193 8.53193 3.0001 12.8887 3L12.8887 2L12.8886 1C7.42736 1.00013 3.00013 5.42735 3 10.8886L4 10.8887ZM12.8887 2V3H356.111V2V1H12.8887V2Z" fill="#767676" mask="url(#path-2-inside-1_1128_5606)"/>
</g>
<path d="M144 15V109.444" stroke="#E4E4E4" stroke-width="2.22222" stroke-linejoin="round" stroke-dasharray="7.78 7.78"/>
<path d="M53.58 69.14C52.6467 69.14 51.8067 68.98 51.06 68.66C50.3133 68.3267 49.7267 67.86 49.3 67.26C48.8733 66.66 48.66 65.96 48.66 65.16H51.1C51.1533 65.76 51.3867 66.2533 51.8 66.64C52.2267 67.0267 52.82 67.22 53.58 67.22C54.3667 67.22 54.98 67.0333 55.42 66.66C55.86 66.2733 56.08 65.78 56.08 65.18C56.08 64.7133 55.94 64.3333 55.66 64.04C55.3933 63.7467 55.0533 63.52 54.64 63.36C54.24 63.2 53.68 63.0267 52.96 62.84C52.0533 62.6 51.3133 62.36 50.74 62.12C50.18 61.8667 49.7 61.48 49.3 60.96C48.9 60.44 48.7 59.7467 48.7 58.88C48.7 58.08 48.9 57.38 49.3 56.78C49.7 56.18 50.26 55.72 50.98 55.4C51.7 55.08 52.5333 54.92 53.48 54.92C54.8267 54.92 55.9267 55.26 56.78 55.94C57.6467 56.6067 58.1267 57.5267 58.22 58.7H55.7C55.66 58.1933 55.42 57.76 54.98 57.4C54.54 57.04 53.96 56.86 53.24 56.86C52.5867 56.86 52.0533 57.0267 51.64 57.36C51.2267 57.6933 51.02 58.1733 51.02 58.8C51.02 59.2267 51.1467 59.58 51.4 59.86C51.6667 60.1267 52 60.34 52.4 60.5C52.8 60.66 53.3467 60.8333 54.04 61.02C54.96 61.2733 55.7067 61.5267 56.28 61.78C56.8667 62.0333 57.36 62.4267 57.76 62.96C58.1733 63.48 58.38 64.18 58.38 65.06C58.38 65.7667 58.1867 66.4333 57.8 67.06C57.4267 67.6867 56.8733 68.1933 56.14 68.58C55.42 68.9533 54.5667 69.14 53.58 69.14ZM71.3303 59.1C70.9703 58.4067 70.4703 57.8867 69.8303 57.54C69.1903 57.18 68.4503 57 67.6103 57C66.6903 57 65.8703 57.2067 65.1503 57.62C64.4303 58.0333 63.8636 58.62 63.4503 59.38C63.0503 60.14 62.8503 61.02 62.8503 62.02C62.8503 63.02 63.0503 63.9067 63.4503 64.68C63.8636 65.44 64.4303 66.0267 65.1503 66.44C65.8703 66.8533 66.6903 67.06 67.6103 67.06C68.8503 67.06 69.857 66.7133 70.6303 66.02C71.4036 65.3267 71.877 64.3867 72.0503 63.2H66.8303V61.38H74.4903V63.16C74.3436 64.24 73.957 65.2333 73.3303 66.14C72.717 67.0467 71.9103 67.7733 70.9103 68.32C69.9236 68.8533 68.8236 69.12 67.6103 69.12C66.3036 69.12 65.1103 68.82 64.0303 68.22C62.9503 67.6067 62.0903 66.76 61.4503 65.68C60.8236 64.6 60.5103 63.38 60.5103 62.02C60.5103 60.66 60.8236 59.44 61.4503 58.36C62.0903 57.28 62.9503 56.44 64.0303 55.84C65.1236 55.2267 66.317 54.92 67.6103 54.92C69.0903 54.92 70.4036 55.2867 71.5503 56.02C72.7103 56.74 73.5503 57.7667 74.0703 59.1H71.3303ZM81.4791 55.1C82.9591 55.1 84.2524 55.3867 85.3591 55.96C86.4791 56.52 87.3391 57.3333 87.9391 58.4C88.5524 59.4533 88.8591 60.6867 88.8591 62.1C88.8591 63.5133 88.5524 64.74 87.9391 65.78C87.3391 66.82 86.4791 67.62 85.3591 68.18C84.2524 68.7267 82.9591 69 81.4791 69H76.9391V55.1H81.4791ZM81.4791 67.14C83.1057 67.14 84.3524 66.7 85.2191 65.82C86.0857 64.94 86.5191 63.7 86.5191 62.1C86.5191 60.4867 86.0857 59.2267 85.2191 58.32C84.3524 57.4133 83.1057 56.96 81.4791 56.96H79.2191V67.14H81.4791ZM96.1341 65.96V64.24L102.854 54.6H105.614V63.98H107.474V65.96H105.614V69H103.374V65.96H96.1341ZM103.474 56.92L98.7541 63.98H103.474V56.92ZM109.563 61.52C109.563 59.2133 109.95 57.4133 110.723 56.12C111.51 54.8133 112.857 54.16 114.763 54.16C116.67 54.16 118.01 54.8133 118.783 56.12C119.57 57.4133 119.963 59.2133 119.963 61.52C119.963 63.8533 119.57 65.68 118.783 67C118.01 68.3067 116.67 68.96 114.763 68.96C112.857 68.96 111.51 68.3067 110.723 67C109.95 65.68 109.563 63.8533 109.563 61.52ZM117.723 61.52C117.723 60.44 117.65 59.5267 117.503 58.78C117.37 58.0333 117.09 57.4267 116.663 56.96C116.237 56.48 115.603 56.24 114.763 56.24C113.923 56.24 113.29 56.48 112.863 56.96C112.437 57.4267 112.15 58.0333 112.003 58.78C111.87 59.5267 111.803 60.44 111.803 61.52C111.803 62.64 111.87 63.58 112.003 64.34C112.137 65.1 112.417 65.7133 112.843 66.18C113.283 66.6467 113.923 66.88 114.763 66.88C115.603 66.88 116.237 66.6467 116.663 66.18C117.103 65.7133 117.39 65.1 117.523 64.34C117.657 63.58 117.723 62.64 117.723 61.52Z" fill="#FF7D29"/>
<path d="M215.372 58.432C215.372 59.328 215.156 60.168 214.724 60.952C214.308 61.736 213.644 62.368 212.732 62.848C211.836 63.328 210.7 63.568 209.324 63.568H206.516V70H203.156V53.248H209.324C210.62 53.248 211.724 53.472 212.636 53.92C213.548 54.368 214.228 54.984 214.676 55.768C215.14 56.552 215.372 57.44 215.372 58.432ZM209.18 60.856C210.108 60.856 210.796 60.648 211.244 60.232C211.692 59.8 211.916 59.2 211.916 58.432C211.916 56.8 211.004 55.984 209.18 55.984H206.516V60.856H209.18ZM221.318 52.24V70H217.958V52.24H221.318ZM223.973 63.304C223.973 61.96 224.237 60.768 224.765 59.728C225.309 58.688 226.037 57.888 226.949 57.328C227.877 56.768 228.909 56.488 230.045 56.488C231.037 56.488 231.901 56.688 232.637 57.088C233.389 57.488 233.989 57.992 234.437 58.6V56.704H237.821V70H234.437V68.056C234.005 68.68 233.405 69.2 232.637 69.616C231.885 70.016 231.013 70.216 230.021 70.216C228.901 70.216 227.877 69.928 226.949 69.352C226.037 68.776 225.309 67.968 224.765 66.928C224.237 65.872 223.973 64.664 223.973 63.304ZM234.437 63.352C234.437 62.536 234.277 61.84 233.957 61.264C233.637 60.672 233.205 60.224 232.661 59.92C232.117 59.6 231.533 59.44 230.909 59.44C230.285 59.44 229.709 59.592 229.181 59.896C228.653 60.2 228.221 60.648 227.885 61.24C227.565 61.816 227.405 62.504 227.405 63.304C227.405 64.104 227.565 64.808 227.885 65.416C228.221 66.008 228.653 66.464 229.181 66.784C229.725 67.104 230.301 67.264 230.909 67.264C231.533 67.264 232.117 67.112 232.661 66.808C233.205 66.488 233.637 66.04 233.957 65.464C234.277 64.872 234.437 64.168 234.437 63.352ZM245.215 59.464V65.896C245.215 66.344 245.319 66.672 245.527 66.88C245.751 67.072 246.119 67.168 246.631 67.168H248.191V70H246.079C243.247 70 241.831 68.624 241.831 65.872V59.464H240.247V56.704H241.831V53.416H245.215V56.704H248.191V59.464H245.215ZM252.512 55.12C251.92 55.12 251.424 54.936 251.024 54.568C250.64 54.184 250.448 53.712 250.448 53.152C250.448 52.592 250.64 52.128 251.024 51.76C251.424 51.376 251.92 51.184 252.512 51.184C253.104 51.184 253.592 51.376 253.976 51.76C254.376 52.128 254.576 52.592 254.576 53.152C254.576 53.712 254.376 54.184 253.976 54.568C253.592 54.936 253.104 55.12 252.512 55.12ZM254.168 56.704V70H250.808V56.704H254.168ZM265.055 56.512C266.639 56.512 267.919 57.016 268.895 58.024C269.871 59.016 270.359 60.408 270.359 62.2V70H266.999V62.656C266.999 61.6 266.735 60.792 266.207 60.232C265.679 59.656 264.959 59.368 264.047 59.368C263.119 59.368 262.383 59.656 261.839 60.232C261.311 60.792 261.047 61.6 261.047 62.656V70H257.687V56.704H261.047V58.36C261.495 57.784 262.063 57.336 262.751 57.016C263.455 56.68 264.223 56.512 265.055 56.512ZM286.306 56.704V70H282.922V68.32C282.49 68.896 281.922 69.352 281.218 69.688C280.53 70.008 279.778 70.168 278.962 70.168C277.922 70.168 277.002 69.952 276.202 69.52C275.402 69.072 274.77 68.424 274.306 67.576C273.858 66.712 273.634 65.688 273.634 64.504V56.704H276.994V64.024C276.994 65.08 277.258 65.896 277.786 66.472C278.314 67.032 279.034 67.312 279.946 67.312C280.874 67.312 281.602 67.032 282.13 66.472C282.658 65.896 282.922 65.08 282.922 64.024V56.704H286.306ZM306.334 56.512C307.966 56.512 309.278 57.016 310.27 58.024C311.278 59.016 311.782 60.408 311.782 62.2V70H308.422V62.656C308.422 61.616 308.158 60.824 307.63 60.28C307.102 59.72 306.382 59.44 305.47 59.44C304.558 59.44 303.83 59.72 303.286 60.28C302.758 60.824 302.494 61.616 302.494 62.656V70H299.134V62.656C299.134 61.616 298.87 60.824 298.342 60.28C297.814 59.72 297.094 59.44 296.182 59.44C295.254 59.44 294.518 59.72 293.974 60.28C293.446 60.824 293.182 61.616 293.182 62.656V70H289.822V56.704H293.182V58.312C293.614 57.752 294.166 57.312 294.838 56.992C295.526 56.672 296.278 56.512 297.094 56.512C298.134 56.512 299.062 56.736 299.878 57.184C300.694 57.616 301.326 58.24 301.774 59.056C302.206 58.288 302.83 57.672 303.646 57.208C304.478 56.744 305.374 56.512 306.334 56.512Z" fill="#3C3C3C"/>
<defs>
<filter id="filter0_d_1128_5606" x="0.666666" y="0.888889" width="367.667" height="126.667" filterUnits="userSpaceOnUse" color-interpolation-filters="sRGB">
<feFlood flood-opacity="0" result="BackgroundImageFix"/>
<feColorMatrix in="SourceAlpha" type="matrix" values="0 0 0 0 0 0 0 0 0 0 0 0 0 0 0 0 0 0 127 0" result="hardAlpha"/>
<feOffset dy="2.22222"/>
<feGaussianBlur stdDeviation="1.66667"/>
<feComposite in2="hardAlpha" operator="out"/>
<feColorMatrix type="matrix" values="0 0 0 0 0 0 0 0 0 0 0 0 0 0 0 0 0 0 0.25 0"/>
<feBlend mode="normal" in2="BackgroundImageFix" result="effect1_dropShadow_1128_5606"/>
<feBlend mode="normal" in="SourceGraphic" in2="effect1_dropShadow_1128_5606" result="shape"/>
</filter>
</defs>
</svg>
