<svg width="369" height="128" viewBox="0 0 369 128" fill="none" xmlns="http://www.w3.org/2000/svg">
<g filter="url(#filter0_d_1302_4260)">
<mask id="path-2-inside-1_1302_4260" fill="white">
<path d="M356.111 2C361.02 2.00012 365 5.97965 365 10.8887V43.0566C364.65 43.033 364.297 43.0205 363.942 43.0205C354.615 43.0207 347.054 51.2857 347.054 61.4814C347.054 71.6773 354.615 79.9431 363.942 79.9434C364.298 79.9434 364.65 79.9289 365 79.9053V113.111C365 118.02 361.02 122 356.111 122H12.8887C7.97965 122 4.00012 118.02 4 113.111V79.9434C13.3275 79.9434 20.8896 71.6775 20.8896 61.4814C20.8895 51.445 13.5623 43.2792 4.43652 43.0264L4 43.0205V10.8887C4.00011 5.97964 7.97964 2.00012 12.8887 2H356.111Z"/>
</mask>
<path d="M356.111 2L356.111 1H356.111V2ZM365 10.8887L366 10.8887L366 10.8886L365 10.8887ZM365 43.0566L364.933 44.0544L366 44.1264V43.0566H365ZM363.942 43.0205L363.942 42.0205L363.942 42.0205L363.942 43.0205ZM347.054 61.4814L346.054 61.4814V61.4814H347.054ZM363.942 79.9434L363.942 80.9434H363.942V79.9434ZM365 79.9053H366V78.8355L364.933 78.9075L365 79.9053ZM365 113.111L366 113.111V113.111H365ZM356.111 122L356.111 123L356.111 123L356.111 122ZM12.8887 122L12.8886 123H12.8887V122ZM4 113.111L3 113.111L3 113.111L4 113.111ZM4 79.9434V78.9434H3V79.9434H4ZM20.8896 61.4814L21.8896 61.4814L21.8896 61.4814L20.8896 61.4814ZM4.43652 43.0264L4.46422 42.0268L4.45708 42.0266L4.44995 42.0265L4.43652 43.0264ZM4 43.0205H3V44.0072L3.98658 44.0204L4 43.0205ZM4 10.8887L3 10.8886V10.8887H4ZM12.8887 2L12.8887 1L12.8886 1L12.8887 2ZM356.111 2L356.111 3C360.468 3.00011 364 6.53194 364 10.8887L365 10.8887L366 10.8886C366 5.42736 361.573 1.00013 356.111 1L356.111 2ZM365 10.8887H364V43.0566H365H366V10.8887H365ZM365 43.0566L365.067 42.0589C364.696 42.0339 364.321 42.0205 363.942 42.0205V43.0205V44.0205C364.274 44.0205 364.604 44.0322 364.933 44.0544L365 43.0566ZM363.942 43.0205L363.942 42.0205C353.981 42.0208 346.054 50.8191 346.054 61.4814L347.054 61.4814L348.054 61.4815C348.054 51.7524 355.249 44.0207 363.942 44.0205L363.942 43.0205ZM347.054 61.4814H346.054C346.054 72.1439 353.981 80.9431 363.942 80.9434L363.942 79.9434L363.942 78.9434C355.249 78.9431 348.054 71.2107 348.054 61.4814H347.054ZM363.942 79.9434V80.9434C364.324 80.9434 364.7 80.9278 365.067 80.903L365 79.9053L364.933 78.9075C364.6 78.93 364.271 78.9434 363.942 78.9434V79.9434ZM365 79.9053H364V113.111H365H366V79.9053H365ZM365 113.111L364 113.111C364 117.468 360.468 121 356.111 121L356.111 122L356.111 123C361.573 123 366 118.573 366 113.111L365 113.111ZM356.111 122V121H12.8887V122V123H356.111V122ZM12.8887 122L12.8887 121C8.53194 121 5.0001 117.468 5 113.111L4 113.111L3 113.111C3.00013 118.573 7.42736 123 12.8886 123L12.8887 122ZM4 113.111H5V79.9434H4H3V113.111H4ZM4 79.9434V80.9434C13.9617 80.9434 21.8896 72.1441 21.8896 61.4814H20.8896H19.8896C19.8896 71.2108 12.6933 78.9434 4 78.9434V79.9434ZM20.8896 61.4814L21.8896 61.4814C21.8895 50.9841 14.2085 42.2967 4.46422 42.0268L4.43652 43.0264L4.40883 44.026C12.9162 44.2617 19.8895 51.9058 19.8896 61.4815L20.8896 61.4814ZM4.43652 43.0264L4.44995 42.0265L4.01342 42.0206L4 43.0205L3.98658 44.0204L4.4231 44.0263L4.43652 43.0264ZM4 43.0205H5V10.8887H4H3V43.0205H4ZM4 10.8887L5 10.8887C5.0001 6.53193 8.53193 3.0001 12.8887 3L12.8887 2L12.8886 1C7.42736 1.00013 3.00013 5.42735 3 10.8886L4 10.8887ZM12.8887 2V3H356.111V2V1H12.8887V2Z" fill="#767676" mask="url(#path-2-inside-1_1302_4260)"/>
</g>
<path d="M144 15V109.444" stroke="#E4E4E4" stroke-width="2.22222" stroke-linejoin="round" stroke-dasharray="7.78 7.78"/>
<path d="M55.08 64.14C54.1467 64.14 53.3067 63.98 52.56 63.66C51.8133 63.3267 51.2267 62.86 50.8 62.26C50.3733 61.66 50.16 60.96 50.16 60.16H52.6C52.6533 60.76 52.8867 61.2533 53.3 61.64C53.7267 62.0267 54.32 62.22 55.08 62.22C55.8667 62.22 56.48 62.0333 56.92 61.66C57.36 61.2733 57.58 60.78 57.58 60.18C57.58 59.7133 57.44 59.3333 57.16 59.04C56.8933 58.7467 56.5533 58.52 56.14 58.36C55.74 58.2 55.18 58.0267 54.46 57.84C53.5533 57.6 52.8133 57.36 52.24 57.12C51.68 56.8667 51.2 56.48 50.8 55.96C50.4 55.44 50.2 54.7467 50.2 53.88C50.2 53.08 50.4 52.38 50.8 51.78C51.2 51.18 51.76 50.72 52.48 50.4C53.2 50.08 54.0333 49.92 54.98 49.92C56.3267 49.92 57.4267 50.26 58.28 50.94C59.1467 51.6067 59.6267 52.5267 59.72 53.7H57.2C57.16 53.1933 56.92 52.76 56.48 52.4C56.04 52.04 55.46 51.86 54.74 51.86C54.0867 51.86 53.5533 52.0267 53.14 52.36C52.7267 52.6933 52.52 53.1733 52.52 53.8C52.52 54.2267 52.6467 54.58 52.9 54.86C53.1667 55.1267 53.5 55.34 53.9 55.5C54.3 55.66 54.8467 55.8333 55.54 56.02C56.46 56.2733 57.2067 56.5267 57.78 56.78C58.3667 57.0333 58.86 57.4267 59.26 57.96C59.6733 58.48 59.88 59.18 59.88 60.06C59.88 60.7667 59.6867 61.4333 59.3 62.06C58.9267 62.6867 58.3733 63.1933 57.64 63.58C56.92 63.9533 56.0667 64.14 55.08 64.14ZM72.8303 54.1C72.4703 53.4067 71.9703 52.8867 71.3303 52.54C70.6903 52.18 69.9503 52 69.1103 52C68.1903 52 67.3703 52.2067 66.6503 52.62C65.9303 53.0333 65.3636 53.62 64.9503 54.38C64.5503 55.14 64.3503 56.02 64.3503 57.02C64.3503 58.02 64.5503 58.9067 64.9503 59.68C65.3636 60.44 65.9303 61.0267 66.6503 61.44C67.3703 61.8533 68.1903 62.06 69.1103 62.06C70.3503 62.06 71.357 61.7133 72.1303 61.02C72.9036 60.3267 73.377 59.3867 73.5503 58.2H68.3303V56.38H75.9903V58.16C75.8436 59.24 75.457 60.2333 74.8303 61.14C74.217 62.0467 73.4103 62.7733 72.4103 63.32C71.4236 63.8533 70.3236 64.12 69.1103 64.12C67.8036 64.12 66.6103 63.82 65.5303 63.22C64.4503 62.6067 63.5903 61.76 62.9503 60.68C62.3236 59.6 62.0103 58.38 62.0103 57.02C62.0103 55.66 62.3236 54.44 62.9503 53.36C63.5903 52.28 64.4503 51.44 65.5303 50.84C66.6236 50.2267 67.817 49.92 69.1103 49.92C70.5903 49.92 71.9036 50.2867 73.0503 51.02C74.2103 51.74 75.0503 52.7667 75.5703 54.1H72.8303ZM82.9791 50.1C84.4591 50.1 85.7524 50.3867 86.8591 50.96C87.9791 51.52 88.8391 52.3333 89.4391 53.4C90.0524 54.4533 90.3591 55.6867 90.3591 57.1C90.3591 58.5133 90.0524 59.74 89.4391 60.78C88.8391 61.82 87.9791 62.62 86.8591 63.18C85.7524 63.7267 84.4591 64 82.9791 64H78.4391V50.1H82.9791ZM82.9791 62.14C84.6057 62.14 85.8524 61.7 86.7191 60.82C87.5857 59.94 88.0191 58.7 88.0191 57.1C88.0191 55.4867 87.5857 54.2267 86.7191 53.32C85.8524 52.4133 84.6057 51.96 82.9791 51.96H80.7191V62.14H82.9791ZM97.6141 51.5V49.42H101.774V64H99.4741V51.5H97.6141ZM105.106 56.52C105.106 54.2133 105.493 52.4133 106.266 51.12C107.053 49.8133 108.4 49.16 110.306 49.16C112.213 49.16 113.553 49.8133 114.326 51.12C115.113 52.4133 115.506 54.2133 115.506 56.52C115.506 58.8533 115.113 60.68 114.326 62C113.553 63.3067 112.213 63.96 110.306 63.96C108.4 63.96 107.053 63.3067 106.266 62C105.493 60.68 105.106 58.8533 105.106 56.52ZM113.266 56.52C113.266 55.44 113.193 54.5267 113.046 53.78C112.913 53.0333 112.633 52.4267 112.206 51.96C111.78 51.48 111.146 51.24 110.306 51.24C109.466 51.24 108.833 51.48 108.406 51.96C107.98 52.4267 107.693 53.0333 107.546 53.78C107.413 54.5267 107.346 55.44 107.346 56.52C107.346 57.64 107.413 58.58 107.546 59.34C107.68 60.1 107.96 60.7133 108.386 61.18C108.826 61.6467 109.466 61.88 110.306 61.88C111.146 61.88 111.78 61.6467 112.206 61.18C112.646 60.7133 112.933 60.1 113.066 59.34C113.2 58.58 113.266 57.64 113.266 56.52Z" fill="#FF7D29"/>
<path d="M251.94 52.168C250.772 52.168 249.716 51.968 248.772 51.568C247.844 51.168 247.108 50.592 246.564 49.84C246.02 49.088 245.74 48.2 245.724 47.176H249.324C249.372 47.864 249.612 48.408 250.044 48.808C250.492 49.208 251.1 49.408 251.868 49.408C252.652 49.408 253.268 49.224 253.716 48.856C254.164 48.472 254.388 47.976 254.388 47.368C254.388 46.872 254.236 46.464 253.932 46.144C253.628 45.824 253.244 45.576 252.78 45.4C252.332 45.208 251.708 45 250.908 44.776C249.82 44.456 248.932 44.144 248.244 43.84C247.572 43.52 246.988 43.048 246.492 42.424C246.012 41.784 245.772 40.936 245.772 39.88C245.772 38.888 246.02 38.024 246.516 37.288C247.012 36.552 247.708 35.992 248.604 35.608C249.5 35.208 250.524 35.008 251.676 35.008C253.404 35.008 254.804 35.432 255.876 36.28C256.964 37.112 257.564 38.28 257.676 39.784H253.98C253.948 39.208 253.7 38.736 253.236 38.368C252.788 37.984 252.188 37.792 251.436 37.792C250.78 37.792 250.252 37.96 249.852 38.296C249.468 38.632 249.276 39.12 249.276 39.76C249.276 40.208 249.42 40.584 249.708 40.888C250.012 41.176 250.38 41.416 250.812 41.608C251.26 41.784 251.884 41.992 252.684 42.232C253.772 42.552 254.66 42.872 255.348 43.192C256.036 43.512 256.628 43.992 257.124 44.632C257.62 45.272 257.868 46.112 257.868 47.152C257.868 48.048 257.636 48.88 257.172 49.648C256.708 50.416 256.028 51.032 255.132 51.496C254.236 51.944 253.172 52.168 251.94 52.168ZM262.685 37.12C262.093 37.12 261.597 36.936 261.197 36.568C260.813 36.184 260.621 35.712 260.621 35.152C260.621 34.592 260.813 34.128 261.197 33.76C261.597 33.376 262.093 33.184 262.685 33.184C263.277 33.184 263.765 33.376 264.149 33.76C264.549 34.128 264.749 34.592 264.749 35.152C264.749 35.712 264.549 36.184 264.149 36.568C263.765 36.936 263.277 37.12 262.685 37.12ZM264.341 38.704V52H260.981V38.704H264.341ZM271.221 34.24V52H267.861V34.24H271.221ZM280.284 48.904L283.644 38.704H287.22L282.3 52H278.22L273.324 38.704H276.924L280.284 48.904ZM301.668 45.064C301.668 45.544 301.636 45.976 301.572 46.36H291.852C291.932 47.32 292.268 48.072 292.86 48.616C293.452 49.16 294.18 49.432 295.044 49.432C296.292 49.432 297.18 48.896 297.708 47.824H301.332C300.948 49.104 300.212 50.16 299.124 50.992C298.036 51.808 296.7 52.216 295.116 52.216C293.836 52.216 292.684 51.936 291.66 51.376C290.652 50.8 289.86 49.992 289.284 48.952C288.724 47.912 288.444 46.712 288.444 45.352C288.444 43.976 288.724 42.768 289.284 41.728C289.844 40.688 290.628 39.888 291.636 39.328C292.644 38.768 293.804 38.488 295.116 38.488C296.38 38.488 297.508 38.76 298.5 39.304C299.508 39.848 300.284 40.624 300.828 41.632C301.388 42.624 301.668 43.768 301.668 45.064ZM298.188 44.104C298.172 43.24 297.86 42.552 297.252 42.04C296.644 41.512 295.9 41.248 295.02 41.248C294.188 41.248 293.484 41.504 292.908 42.016C292.348 42.512 292.004 43.208 291.876 44.104H298.188ZM307.68 40.768C308.112 40.064 308.672 39.512 309.36 39.112C310.064 38.712 310.864 38.512 311.76 38.512V42.04H310.872C309.816 42.04 309.016 42.288 308.472 42.784C307.944 43.28 307.68 44.144 307.68 45.376V52H304.32V38.704H307.68V40.768Z" fill="#3C3C3C"/>
<path d="M236.532 73.04V71.878H239.164V82H237.876V73.04H236.532ZM241.552 76.834C241.552 75.2287 241.814 73.978 242.336 73.082C242.859 72.1767 243.774 71.724 245.08 71.724C246.378 71.724 247.288 72.1767 247.81 73.082C248.333 73.978 248.594 75.2287 248.594 76.834C248.594 78.4673 248.333 79.7367 247.81 80.642C247.288 81.5473 246.378 82 245.08 82C243.774 82 242.859 81.5473 242.336 80.642C241.814 79.7367 241.552 78.4673 241.552 76.834ZM247.334 76.834C247.334 76.022 247.278 75.336 247.166 74.776C247.064 74.2067 246.844 73.7493 246.508 73.404C246.182 73.0587 245.706 72.886 245.08 72.886C244.446 72.886 243.96 73.0587 243.624 73.404C243.298 73.7493 243.078 74.2067 242.966 74.776C242.864 75.336 242.812 76.022 242.812 76.834C242.812 77.674 242.864 78.3787 242.966 78.948C243.078 79.5173 243.298 79.9747 243.624 80.32C243.96 80.6653 244.446 80.838 245.08 80.838C245.706 80.838 246.182 80.6653 246.508 80.32C246.844 79.9747 247.064 79.5173 247.166 78.948C247.278 78.3787 247.334 77.674 247.334 76.834ZM260.692 72.242V73.278H258.032V82H256.758V73.278H254.084V72.242H260.692ZM265.806 82.126C265.087 82.126 264.434 81.9627 263.846 81.636C263.267 81.3093 262.81 80.8473 262.474 80.25C262.147 79.6433 261.984 78.9433 261.984 78.15C261.984 77.366 262.152 76.6753 262.488 76.078C262.833 75.4713 263.3 75.0093 263.888 74.692C264.476 74.3653 265.134 74.202 265.862 74.202C266.59 74.202 267.248 74.3653 267.836 74.692C268.424 75.0093 268.886 75.4667 269.222 76.064C269.567 76.6613 269.74 77.3567 269.74 78.15C269.74 78.9433 269.563 79.6433 269.208 80.25C268.863 80.8473 268.391 81.3093 267.794 81.636C267.197 81.9627 266.534 82.126 265.806 82.126ZM265.806 81.006C266.263 81.006 266.693 80.8987 267.094 80.684C267.495 80.4693 267.817 80.1473 268.06 79.718C268.312 79.2887 268.438 78.766 268.438 78.15C268.438 77.534 268.317 77.0113 268.074 76.582C267.831 76.1527 267.514 75.8353 267.122 75.63C266.73 75.4153 266.305 75.308 265.848 75.308C265.381 75.308 264.952 75.4153 264.56 75.63C264.177 75.8353 263.869 76.1527 263.636 76.582C263.403 77.0113 263.286 77.534 263.286 78.15C263.286 78.7753 263.398 79.3027 263.622 79.732C263.855 80.1613 264.163 80.4833 264.546 80.698C264.929 80.9033 265.349 81.006 265.806 81.006ZM275.899 82L272.889 78.612V82H271.615V71.64H272.889V77.73L275.843 74.328H277.621L274.009 78.15L277.635 82H275.899ZM286.02 77.87C286.02 78.1127 286.006 78.3693 285.978 78.64H279.846C279.893 79.396 280.15 79.9887 280.616 80.418C281.092 80.838 281.666 81.048 282.338 81.048C282.889 81.048 283.346 80.922 283.71 80.67C284.084 80.4087 284.345 80.0633 284.494 79.634H285.866C285.661 80.3713 285.25 80.9733 284.634 81.44C284.018 81.8973 283.253 82.126 282.338 82.126C281.61 82.126 280.957 81.9627 280.378 81.636C279.809 81.3093 279.361 80.8473 279.034 80.25C278.708 79.6433 278.544 78.9433 278.544 78.15C278.544 77.3567 278.703 76.6613 279.02 76.064C279.338 75.4667 279.781 75.0093 280.35 74.692C280.929 74.3653 281.592 74.202 282.338 74.202C283.066 74.202 283.71 74.3607 284.27 74.678C284.83 74.9953 285.26 75.434 285.558 75.994C285.866 76.5447 286.02 77.17 286.02 77.87ZM284.704 77.604C284.704 77.1187 284.597 76.7033 284.382 76.358C284.168 76.0033 283.874 75.7373 283.5 75.56C283.136 75.3733 282.73 75.28 282.282 75.28C281.638 75.28 281.088 75.4853 280.63 75.896C280.182 76.3067 279.926 76.876 279.86 77.604H284.704ZM291.64 74.188C292.573 74.188 293.329 74.4727 293.908 75.042C294.486 75.602 294.776 76.414 294.776 77.478V82H293.516V77.66C293.516 76.8947 293.324 76.3113 292.942 75.91C292.559 75.4993 292.036 75.294 291.374 75.294C290.702 75.294 290.165 75.504 289.764 75.924C289.372 76.344 289.176 76.9553 289.176 77.758V82H287.902V74.328H289.176V75.42C289.428 75.028 289.768 74.7247 290.198 74.51C290.636 74.2953 291.117 74.188 291.64 74.188ZM304.111 75.378H302.501V82H301.227V75.378H300.233V74.328H301.227V73.782C301.227 72.9233 301.447 72.298 301.885 71.906C302.333 71.5047 303.047 71.304 304.027 71.304V72.368C303.467 72.368 303.071 72.48 302.837 72.704C302.613 72.9187 302.501 73.278 302.501 73.782V74.328H304.111V75.378ZM309.143 82.126C308.424 82.126 307.771 81.9627 307.183 81.636C306.604 81.3093 306.147 80.8473 305.811 80.25C305.484 79.6433 305.321 78.9433 305.321 78.15C305.321 77.366 305.489 76.6753 305.825 76.078C306.17 75.4713 306.637 75.0093 307.225 74.692C307.813 74.3653 308.471 74.202 309.199 74.202C309.927 74.202 310.585 74.3653 311.173 74.692C311.761 75.0093 312.223 75.4667 312.559 76.064C312.904 76.6613 313.077 77.3567 313.077 78.15C313.077 78.9433 312.899 79.6433 312.545 80.25C312.199 80.8473 311.728 81.3093 311.131 81.636C310.533 81.9627 309.871 82.126 309.143 82.126ZM309.143 81.006C309.6 81.006 310.029 80.8987 310.431 80.684C310.832 80.4693 311.154 80.1473 311.397 79.718C311.649 79.2887 311.775 78.766 311.775 78.15C311.775 77.534 311.653 77.0113 311.411 76.582C311.168 76.1527 310.851 75.8353 310.459 75.63C310.067 75.4153 309.642 75.308 309.185 75.308C308.718 75.308 308.289 75.4153 307.897 75.63C307.514 75.8353 307.206 76.1527 306.973 76.582C306.739 77.0113 306.623 77.534 306.623 78.15C306.623 78.7753 306.735 79.3027 306.959 79.732C307.192 80.1613 307.5 80.4833 307.883 80.698C308.265 80.9033 308.685 81.006 309.143 81.006ZM316.226 75.574C316.45 75.1353 316.767 74.7947 317.178 74.552C317.598 74.3093 318.106 74.188 318.704 74.188V75.504H318.368C316.94 75.504 316.226 76.2787 316.226 77.828V82H314.952V74.328H316.226V75.574Z" fill="#727272"/>
<defs>
<filter id="filter0_d_1302_4260" x="0.666666" y="0.888889" width="367.667" height="126.667" filterUnits="userSpaceOnUse" color-interpolation-filters="sRGB">
<feFlood flood-opacity="0" result="BackgroundImageFix"/>
<feColorMatrix in="SourceAlpha" type="matrix" values="0 0 0 0 0 0 0 0 0 0 0 0 0 0 0 0 0 0 127 0" result="hardAlpha"/>
<feOffset dy="2.22222"/>
<feGaussianBlur stdDeviation="1.66667"/>
<feComposite in2="hardAlpha" operator="out"/>
<feColorMatrix type="matrix" values="0 0 0 0 0 0 0 0 0 0 0 0 0 0 0 0 0 0 0.25 0"/>
<feBlend mode="normal" in2="BackgroundImageFix" result="effect1_dropShadow_1302_4260"/>
<feBlend mode="normal" in="SourceGraphic" in2="effect1_dropShadow_1302_4260" result="shape"/>
</filter>
</defs>
</svg>
